<svg version="1.1" id="monolynx-logo" xmlns="http://www.w3.org/2000/svg" width="auto" xmlns:xlink="http://www.w3.org/1999/xlink" x="0px" y="0px" viewBox="0 0 500 373" style="enable-background:new 0 0 500 373;" xml:space="preserve">
                <style type="text/css">
                	.monolynx{fill:#E9571B;}
                </style>
                <g>
                	<path d="M465,351.2l-17.4-26.7l16.4-23.9h-15.1l-9.4,14.6l-8.8-14.6h-15.5l16.1,24.7l-17.2,26h15.1l10.3-16.8l10,16.8H465z
                		 M389.2,299.3c-6.9,0-13,2.9-16.8,7.5l-2.7-6.3h-9.4v50.7h13.7v-26.6c0-8.2,4.3-13.2,11.4-13.2c5.9,0,8.8,3.7,8.8,11.4v28.5H408
                		v-30.7C408,307.6,400.8,299.3,389.2,299.3z M338.9,300.5l-12.6,31.2l-13.5-31.2h-14.9l21.5,46.8l-0.2,0.4
                		c-3.1,7.7-4.8,9.4-11.4,9.4h-4.7v12.3h5.6c11.4,0,16.7-5.2,22.8-18.9l22.1-50H338.9z M277,351.2h13.7v-68.9H277V351.2z
                		 M239.8,339.7c-7.9,0-13.5-5.7-13.5-13.9c0-8.2,5.6-13.9,13.5-13.9s13.5,5.7,13.5,13.9C253.3,334,247.7,339.7,239.8,339.7z
                		 M239.8,352.6c15.6,0,27.4-11.5,27.4-26.8c0-15.4-11.8-26.8-27.4-26.8c-15.7,0-27.4,11.4-27.4,26.8
                		C212.4,341.1,224.1,352.6,239.8,352.6L239.8,352.6z M184.5,299.3c-6.9,0-13,2.9-16.8,7.5l-2.7-6.3h-9.4v50.7h13.7v-26.6
                		c0-8.2,4.3-13.2,11.4-13.2c5.9,0,8.8,3.7,8.8,11.4v28.5h13.7v-30.7C203.2,307.6,196,299.3,184.5,299.3z M118.4,339.7
                		c-7.9,0-13.5-5.7-13.5-13.9c0-8.2,5.6-13.9,13.5-13.9c7.9,0,13.5,5.7,13.5,13.9C131.9,334,126.3,339.7,118.4,339.7z M118.4,352.6
                		c15.6,0,27.4-11.5,27.4-26.8c0-15.4-11.8-26.8-27.4-26.8c-15.7,0-27.4,11.4-27.4,26.8C91,341.1,102.7,352.6,118.4,352.6
                		L118.4,352.6z M64,299.3c-6.4,0-12.2,3.2-15.7,8.1c-2.9-5.1-8.3-8.1-14.7-8.1c-6,0-11.5,2.9-15.1,7.5l-2.6-6.3H6.3v50.7H20v-27.4
                		c0-7.9,3.7-12.4,9.9-12.4c4.9,0,7.5,3.6,7.5,10.3v29.5h13.4v-27.4c0-7.9,3.6-12.4,9.7-12.4c5,0,7.6,3.6,7.6,10.3v29.5h13.7v-31.8
                		C81.8,307.5,74.5,299.3,64,299.3L64,299.3z"></path>
                	<path class="monolynx" d="M381.4,79.8c-2.4-5.2-7.7-8.9-13.8-8.9c-4.8,0-9.1,2.3-11.9,5.8c-0.6,0.8-1.7,2.4-1.7,2.4l-5.7,8.4l-48.7,72.2
                		l-39.6-114c0,0-1.9-5.9-2.7-7.8c-6.9-16.4-23.2-28-42.1-28c-12.6,0-24,5.1-32.3,13.4C182.5,23.9,43.1,143,43.1,143
                		c-15.6,11-25.8,29.2-25.8,49.7c0,33.6,27.3,60.9,60.9,60.9c20,0,37.8-9.7,48.9-24.6l80.2-94.2L265,238.3
                		c5.2,9.2,15.1,15.4,26.5,15.4c13,0,24.1-8.1,28.5-19.6l0,0l49.6-115.9l25.9,48.5c0,0,3.5,6.9,3.9,7.5c1.4,2,3.7,3.4,6.3,3.4
                		c2.9,0,5.4-1.6,6.7-4c0.6-1.1,0.9-2.3,0.9-3.6c0-0.1-0.5-1.5-1.3-3.9c-0.3-1-0.7-2.1-1.2-3.4C403.4,141.1,381.4,79.8,381.4,79.8z"></path>
                	<path class="monolynx" d="M491.4,310.2h1.6c-0.1,0-0.1-0.1-0.1-6.2c0-1.7-0.9-2.9-3-2.9c-1.3,0-2.5,0.5-3,1.6c-0.3-1-1.3-1.6-2.6-1.6
                		s-2.6,0.6-3,1.5v-1.4h-1.7v8.9h1.7v-5.5c0-1,0.8-2,2.2-2c1.3,0,1.9,0.6,1.9,1.7c0,1,0,5.5,0,5.7h1.6v-5.6c0-1.2,1-1.9,2.1-1.9
                		c1.6,0,2,0.7,2,1.9C491.3,310.2,491.3,310.2,491.4,310.2z M478.3,302.8v-1.5h-2.7c0-0.2,0-1.9,0-1.9l-1.7,0c0,0,0,1.8-0.1,1.9h-1.5
                		v1.5h1.5c0,1.2,0,4.1,0,5.2c0,1.7,1.1,2.3,2.5,2.3c0.8,0,1.5-0.1,1.9-0.2v-1.5c-0.3,0-0.9,0.1-1.2,0.1c-1,0-1.4-0.3-1.4-1.3
                		c0-0.8,0-3.7,0-4.7H478.3z"></path>
                </g>
            </svg>
