<svg version="1.1" id="monolynx-icon" xmlns="http://www.w3.org/2000/svg" xmlns:xlink="http://www.w3.org/1999/xlink" viewBox="15 7 404 250" xml:space="preserve">
	<path fill="#FFFFFF" d="M381.4,79.8c-2.4-5.2-7.7-8.9-13.8-8.9c-4.8,0-9.1,2.3-11.9,5.8c-0.6,0.8-1.7,2.4-1.7,2.4l-5.7,8.4l-48.7,72.2
		l-39.6-114c0,0-1.9-5.9-2.7-7.8c-6.9-16.4-23.2-28-42.1-28c-12.6,0-24,5.1-32.3,13.4C182.5,23.9,43.1,143,43.1,143
		c-15.6,11-25.8,29.2-25.8,49.7c0,33.6,27.3,60.9,60.9,60.9c20,0,37.8-9.7,48.9-24.6l80.2-94.2L265,238.3
		c5.2,9.2,15.1,15.4,26.5,15.4c13,0,24.1-8.1,28.5-19.6l0,0l49.6-115.9l25.9,48.5c0,0,3.5,6.9,3.9,7.5c1.4,2,3.7,3.4,6.3,3.4
		c2.9,0,5.4-1.6,6.7-4c0.6-1.1,0.9-2.3,0.9-3.6c0-0.1-0.5-1.5-1.3-3.9c-0.3-1-0.7-2.1-1.2-3.4C403.4,141.1,381.4,79.8,381.4,79.8z"/>
</svg>
